<?xml version="1.0" encoding="utf-8"?>
<!-- Generator: Adobe Illustrator 16.0.0, SVG Export Plug-In . SVG Version: 6.00 Build 0)  -->
<!DOCTYPE svg PUBLIC "-//W3C//DTD SVG 1.1//EN" "http://www.w3.org/Graphics/SVG/1.1/DTD/svg11.dtd">
<svg version="1.1" id="_x32_" xmlns="http://www.w3.org/2000/svg" xmlns:xlink="http://www.w3.org/1999/xlink" x="0px" y="0px"
	 width="1081px" height="1080px" viewBox="0 0 1081 1080" enable-background="new 0 0 1081 1080" xml:space="preserve">
<g>
	<path fill="#8768FB" d="M1081,540C1081,241.762,839.238,0,541,0S1,241.762,1,540s241.762,540,540,540S1081,838.238,1081,540z"/>
</g>
<path d="M478.857,755.989V507.507l-99.804,104.893c-23.611,24.853-62.991,25.84-87.847,2.177
	c-24.887-23.663-25.874-62.993-2.177-87.862l244.806-257.326c1.873-1.956,4.457-3.063,7.163-3.063c2.704,0,5.29,1.105,7.161,3.063
	l244.825,257.328c23.68,24.87,22.709,64.199-2.179,87.862c-24.868,23.663-64.233,22.676-87.86-2.177L603.158,507.51v248.481
	c0,34.345-27.812,62.157-62.157,62.157S478.857,790.336,478.857,755.989z"/>
</svg>
